<svg xmlns="http://www.w3.org/2000/svg" viewBox="0 0 506.73 431.82"><defs><style>.cls-1{fill:#fff;stroke:#fff;stroke-miterlimit:10;}</style></defs><g id="Layer_2" data-name="Layer 2"><g id="Layer_1-2" data-name="Layer 1"><path class="cls-1" d="M489.15,21.34c-5.95-7.27-14.85-11.27-25.07-11.27a49.23,49.23,0,0,0-17.5,3.48L34.69,170.78c-21.86,8.34-24.8,20.86-24.62,27.58s3.84,19,26.14,26.15l.4.12,85.44,24.45,46.2,132.12c6.3,18,20.44,29.2,36.91,29.2,10.39,0,20.6-4.35,29.54-12.57l52.84-48.66,76.65,61.72h0l.73.59.2.16c8.52,6.61,17.82,10.1,26.91,10.1h0c17.75,0,31.88-13.14,36-33.47L495.55,55C498.26,41.67,496,29.7,489.15,21.34ZM150.63,244.43l164.83-84.21L212.83,269.28a14.25,14.25,0,0,0-3.46,6.35L189.58,355.8Zm64.75,132.42a25.6,25.6,0,0,1-2,1.7l18.36-74.36,33.4,26.89ZM467.6,49.38,400.12,382.63c-.65,3.19-2.73,10.61-8.06,10.61-2.64,0-5.95-1.44-9.34-4.05l-86.86-69.93s0,0,0,0l-51.68-41.62L392.57,119.9A14.26,14.26,0,0,0,375.7,97.43L131.58,222.15,45,197.37,456.75,40.19a20.89,20.89,0,0,1,7.33-1.61c.87,0,2.42.1,3,.81C467.83,40.32,468.8,43.47,467.6,49.38Z"/><path class="cls-1" d="M392.06,431.32c-11.23,0-22.56-4.19-32.77-12.11l-.49-.38-.45-.26-.55-.55L288,361.79l-46.78,43.07c-10.74,9.89-23.2,15.11-36,15.11-20.65,0-38.26-13.64-45.94-35.61L114.65,256.91,34,233.84l-.62-.19C4.34,224.41.72,206.08.51,198.63s2.37-25.95,30.77-36.79L443.17,4.61A58.57,58.57,0,0,1,464.08.5c13.15,0,24.68,5.25,32.47,14.78h0c8.69,10.63,11.66,25.42,8.37,41.66L437.44,390.18C432.38,415.17,414.56,431.32,392.06,431.32ZM370.9,404l.06.05c6.88,5.33,14.16,8.13,21.1,8.13,13.2,0,23.4-9.88,26.62-25.79L486.17,53.14c2.13-10.5.56-19.65-4.43-25.74h0c-4.09-5-10.36-7.75-17.66-7.75A39.48,39.48,0,0,0,450,22.49L38.1,179.72c-11.38,4.34-17.85,10.36-18.42,17.07L453.34,31.25A30.3,30.3,0,0,1,464.08,29c5.7,0,8.82,2.37,10.43,4.36,3.14,3.83,4,10.21,2.47,17.91h0L409.49,384.53c-2.33,11.45-8.85,18.27-17.43,18.27-4.81,0-10.05-2.08-15.18-6l-.16-.13L230.09,278.58,385.6,113.34a4.69,4.69,0,0,0-5.54-7.39L132.58,232.38,19.88,200.14c1.34,6.33,8.06,11.7,19.23,15.25l.13,0,90.2,25.81L177.28,378c4,11.33,11.67,19.2,20.93,21.83L226,287.32l53.74,43.28-57.88,53.3c-.88.8-1.79,1.56-2.79,2.31l-18.86,14.14a25.49,25.49,0,0,0,4.95.49c7.94,0,15.91-3.48,23.06-10.06l58.91-54.23L369.61,403l.46.26Zm17.73-22.33c.59.44,1.12.8,1.58,1.08a18.47,18.47,0,0,0,.53-2l67-330.65-382.48,146,55.37,15.84,240.76-123a23.82,23.82,0,0,1,28.19,37.54L258.19,276.64l43,34.6.2.11.67.58ZM237.38,321.05l-7.21,29.17,20.27-18.65Zm-46.22,68.26-52.32-149.6L360.24,126.6,219.8,275.84a4.62,4.62,0,0,0-1.14,2.09ZM162.42,249.15,188,322.29l12.09-49a24,24,0,0,1,5.78-10.62l64.83-68.88Z"/></g></g></svg>