<svg width="44" height="49" viewBox="0 0 44 49" fill="none" xmlns="http://www.w3.org/2000/svg">
<path fill-rule="evenodd" clip-rule="evenodd" d="M16.4915 32.4097L21.4927 35.5139L21.8456 35.733L22.1986 35.5139L27.1998 32.4097V30.8342L21.8456 34.1575L16.4915 30.8343V32.4097ZM15.153 31.5789V30.0035L9.79872 26.6801V28.2556L15.153 31.5789ZM8.46017 27.4247V25.8493L2.78964 22.3297L2.08374 23.467L8.46017 27.4247ZM28.5384 30.0034V31.5788L33.8926 28.2555V26.6801L28.5384 30.0034ZM35.2312 25.8493V27.4247L41.6075 23.467L40.9016 22.3297L35.2312 25.8493Z" fill="#D9A83D"/>
<path d="M5.7832 12.1899L21.8458 1.48157L38.5776 12.1899" stroke="white" stroke-width="1.33855"/>
<path d="M2.43677 19.552L21.8457 31.5989L41.2546 19.552" stroke="#D9A83D" stroke-width="2.67709"/>
<path d="M21.1764 23.5676V49H22.515V23.5676H21.1764Z" fill="white"/>
<path d="M0.428955 8.17432V36.9531H3.10605V13.5285L21.8457 26.2447L40.5854 13.5285V36.9531H43.2625V8.17432L21.8457 22.8983L0.428955 8.17432Z" fill="white"/>
</svg>
